<?xml version="1.0" encoding="UTF-8"?>
<svg xmlns="http://www.w3.org/2000/svg" xmlns:xlink="http://www.w3.org/1999/xlink" width="375pt" height="374.999991pt" viewBox="0 0 375 374.999991" version="1.2">
<defs>
<clipPath id="clip1">
  <path d="M 229.171875 149.6875 L 239.941406 149.6875 L 239.941406 207.414062 L 229.171875 207.414062 Z M 229.171875 149.6875 "/>
</clipPath>
<clipPath id="clip2">
  <path d="M 239.546875 207.324219 C 236.65625 206.589844 233.519531 205.632812 232.429688 204.023438 C 230.917969 201.789062 230.332031 198.527344 229.636719 195.941406 C 228.558594 191.90625 231.808594 190.648438 233.734375 187.902344 C 236.761719 183.59375 234.804688 176.972656 234.445312 172.105469 C 234.183594 168.496094 233.753906 165 232.398438 161.621094 C 230.734375 157.46875 230.398438 153.933594 229.875 149.707031 C 231.683594 149.761719 233.644531 149.984375 235.5625 149.984375 C 235.785156 149.984375 236.007812 149.984375 236.230469 149.976562 C 238.371094 164.433594 239.222656 190.953125 239.546875 207.324219 "/>
</clipPath>
<clipPath id="clip3">
  <path d="M 177 59.789062 L 236 59.789062 L 236 88 L 177 88 Z M 177 59.789062 "/>
</clipPath>
<clipPath id="clip4">
  <path d="M 240 214 L 250 214 L 250 315.539062 L 240 315.539062 Z M 240 214 "/>
</clipPath>
<clipPath id="clip5">
  <path d="M 271 214 L 280 214 L 280 315.539062 L 271 315.539062 Z M 271 214 "/>
</clipPath>
<clipPath id="clip6">
  <path d="M 78 214 L 88 214 L 88 315.539062 L 78 315.539062 Z M 78 214 "/>
</clipPath>
<clipPath id="clip7">
  <path d="M 104 214 L 113 214 L 113 315.539062 L 104 315.539062 Z M 104 214 "/>
</clipPath>
<clipPath id="clip8">
  <path d="M 69.222656 207 L 317.472656 207 L 317.472656 218 L 69.222656 218 Z M 69.222656 207 "/>
</clipPath>
<clipPath id="clip9">
  <path d="M 128.8125 132 L 164.8125 132 L 164.8125 164.875 L 128.8125 164.875 Z M 128.8125 132 "/>
</clipPath>
</defs>
<g id="surface1">
<path style=" stroke:none;fill-rule:nonzero;fill:rgb(29.019165%,16.859436%,8.628845%);fill-opacity:1;" d="M 254.746094 231.820312 C 254.746094 236.484375 251.378906 240.269531 247.234375 240.269531 L 189.796875 240.269531 C 185.644531 240.269531 182.28125 236.484375 182.28125 231.820312 L 182.28125 160.9375 C 182.28125 156.269531 185.644531 152.488281 189.796875 152.488281 L 247.234375 152.488281 C 251.378906 152.488281 254.746094 156.269531 254.746094 160.9375 L 254.746094 231.820312 "/>
<path style=" stroke:none;fill-rule:nonzero;fill:rgb(43.528748%,26.269531%,13.729858%);fill-opacity:1;" d="M 252.152344 232.425781 C 252.152344 236.757812 249.03125 240.269531 245.175781 240.269531 L 191.851562 240.269531 C 188 240.269531 184.875 236.757812 184.875 232.425781 L 184.875 166.617188 C 184.875 162.285156 188 158.773438 191.851562 158.773438 L 245.175781 158.773438 C 249.03125 158.773438 252.152344 162.285156 252.152344 166.617188 L 252.152344 232.425781 "/>
<path style=" stroke:none;fill-rule:nonzero;fill:rgb(21.179199%,12.159729%,5.488586%);fill-opacity:1;" d="M 194.058594 302.320312 L 194.058594 245.789062 L 185.414062 245.789062 L 185.414062 302.320312 C 185.414062 304.847656 187.347656 306.898438 189.738281 306.898438 C 192.128906 306.898438 194.058594 304.847656 194.058594 302.320312 "/>
<path style=" stroke:none;fill-rule:nonzero;fill:rgb(21.179199%,12.159729%,5.488586%);fill-opacity:1;" d="M 227.164062 302.320312 L 227.164062 245.789062 L 218.511719 245.789062 L 218.511719 302.320312 C 218.511719 304.847656 220.449219 306.898438 222.835938 306.898438 C 225.222656 306.898438 227.164062 304.847656 227.164062 302.320312 "/>
<path style=" stroke:none;fill-rule:nonzero;fill:rgb(21.179199%,12.159729%,5.488586%);fill-opacity:1;" d="M 222.835938 277.875 L 189.738281 277.875 L 189.738281 267.378906 L 222.835938 267.378906 C 222.835938 267.378906 224.628906 268.421875 224.628906 272.625 C 224.628906 276.832031 222.835938 277.875 222.835938 277.875 "/>
<path style=" stroke:none;fill-rule:nonzero;fill:rgb(51.759338%,32.548523%,19.999695%);fill-opacity:1;" d="M 220.488281 302.320312 L 220.488281 245.789062 L 211.839844 245.789062 L 211.839844 302.320312 C 211.839844 304.847656 213.773438 306.898438 216.164062 306.898438 C 218.550781 306.898438 220.488281 304.847656 220.488281 302.320312 "/>
<path style=" stroke:none;fill-rule:nonzero;fill:rgb(29.019165%,16.859436%,8.628845%);fill-opacity:1;" d="M 253.585938 302.320312 L 253.585938 245.789062 L 244.9375 245.789062 L 244.9375 302.320312 C 244.9375 304.847656 246.875 306.898438 249.261719 306.898438 C 251.652344 306.898438 253.585938 304.847656 253.585938 302.320312 "/>
<path style=" stroke:none;fill-rule:nonzero;fill:rgb(29.019165%,16.859436%,8.628845%);fill-opacity:1;" d="M 259.292969 238.402344 L 205.941406 238.402344 L 205.941406 248.125 L 259.292969 248.125 C 262.210938 248.125 264.574219 245.949219 264.574219 243.265625 C 264.574219 240.578125 262.210938 238.402344 259.292969 238.402344 "/>
<path style=" stroke:none;fill-rule:nonzero;fill:rgb(51.759338%,32.548523%,19.999695%);fill-opacity:1;" d="M 236.058594 243.265625 C 236.058594 245.949219 235.351562 248.125 234.480469 248.125 L 175.960938 248.125 C 175.085938 248.125 174.375 245.949219 174.375 243.265625 C 174.375 240.578125 175.085938 238.402344 175.960938 238.402344 L 234.480469 238.402344 C 235.351562 238.402344 236.058594 240.578125 236.058594 243.265625 "/>
<path style=" stroke:none;fill-rule:nonzero;fill:rgb(51.759338%,32.548523%,19.999695%);fill-opacity:1;" d="M 248.277344 277.875 L 215.179688 277.875 L 215.179688 267.378906 L 248.277344 267.378906 C 248.277344 267.378906 250.066406 268.421875 250.066406 272.625 C 250.066406 276.832031 248.277344 277.875 248.277344 277.875 "/>
<path style=" stroke:none;fill-rule:nonzero;fill:rgb(13.328552%,11.369324%,13.729858%);fill-opacity:1;" d="M 116.53125 301.078125 L 124.402344 301.078125 C 124.402344 301.078125 138.515625 299.367188 140.90625 298.847656 C 145.527344 297.847656 143.429688 293.984375 143.429688 291.652344 C 143.429688 289.320312 143.429688 288.542969 143.429688 288.542969 L 136.195312 290.195312 C 136.195312 290.195312 120.425781 296.609375 117.316406 297.96875 C 114.207031 299.328125 116.53125 301.078125 116.53125 301.078125 "/>
<path style=" stroke:none;fill-rule:nonzero;fill:rgb(13.328552%,11.369324%,13.729858%);fill-opacity:1;" d="M 208.933594 236.824219 C 208.933594 236.824219 207.175781 236.679688 204.09375 236.429688 C 200.984375 236.199219 196.523438 235.886719 191.199219 235.632812 C 188.535156 235.507812 185.65625 235.394531 182.636719 235.328125 C 179.621094 235.265625 176.457031 235.246094 173.292969 235.339844 C 171.722656 235.386719 170.140625 235.460938 168.65625 235.59375 C 167.914062 235.65625 167.191406 235.734375 166.546875 235.824219 C 165.90625 235.914062 165.316406 236.023438 164.984375 236.09375 C 164.859375 236.117188 164.730469 236.152344 164.890625 236.058594 C 164.917969 236.039062 164.941406 236.019531 165.042969 235.964844 C 165.136719 235.90625 165.164062 235.875 165.304688 235.78125 C 165.457031 235.675781 165.574219 235.574219 165.726562 235.4375 C 165.839844 235.34375 165.949219 235.246094 166.054688 235.144531 L 166.203125 234.980469 L 166.605469 234.523438 L 166.375 234.777344 C 166.464844 234.675781 166.574219 234.53125 166.65625 234.402344 L 166.714844 234.296875 L 166.699219 234.308594 L 166.644531 234.367188 C 166.539062 234.511719 166.386719 234.742188 166.226562 235.027344 C 165.566406 236.175781 164.835938 237.738281 164.148438 239.277344 C 162.757812 242.402344 161.421875 245.722656 160.140625 248.996094 C 158.859375 252.285156 157.632812 255.554688 156.460938 258.734375 C 154.113281 265.09375 151.992188 271.082031 150.195312 276.222656 C 148.421875 281.375 146.941406 285.667969 145.90625 288.671875 C 144.894531 291.679688 144.316406 293.398438 144.316406 293.398438 L 133.914062 290.5 C 133.914062 290.5 134.324219 288.714844 135.039062 285.585938 C 135.769531 282.464844 136.8125 278.007812 138.074219 272.660156 C 139.355469 267.3125 140.878906 261.085938 142.597656 254.402344 C 143.460938 251.058594 144.371094 247.605469 145.351562 244.085938 C 146.335938 240.558594 147.363281 236.984375 148.570312 233.304688 C 149.191406 231.441406 149.808594 229.617188 150.722656 227.496094 C 150.953125 226.960938 151.222656 226.386719 151.5625 225.746094 C 151.632812 225.601562 151.757812 225.390625 151.855469 225.214844 L 152.011719 224.945312 L 152.097656 224.796875 L 152.257812 224.554688 C 152.46875 224.238281 152.707031 223.90625 152.921875 223.621094 L 153.125 223.347656 C 153.054688 223.421875 153.722656 222.664062 153.507812 222.914062 L 153.644531 222.769531 L 153.917969 222.496094 C 154.105469 222.3125 154.296875 222.140625 154.492188 221.96875 C 154.820312 221.691406 155.128906 221.464844 155.457031 221.226562 C 155.78125 220.996094 156.011719 220.863281 156.296875 220.691406 C 156.589844 220.511719 156.8125 220.394531 157.042969 220.273438 C 158.007812 219.777344 158.726562 219.507812 159.441406 219.242188 C 160.820312 218.757812 161.96875 218.460938 163.070312 218.199219 C 164.171875 217.945312 165.195312 217.75 166.191406 217.574219 C 168.1875 217.230469 170.066406 216.984375 171.898438 216.773438 C 175.546875 216.359375 178.976562 216.097656 182.214844 215.898438 C 185.457031 215.699219 188.496094 215.5625 191.296875 215.460938 C 196.890625 215.261719 201.53125 215.199219 204.789062 215.171875 C 208.074219 215.167969 209.957031 215.160156 209.957031 215.160156 L 208.933594 236.824219 "/>
<path style=" stroke:none;fill-rule:nonzero;fill:rgb(97.648621%,66.668701%,47.059631%);fill-opacity:1;" d="M 176.964844 197.457031 C 176.964844 200.496094 172.574219 202.964844 167.164062 202.964844 C 161.753906 202.964844 157.371094 200.496094 157.371094 197.457031 C 157.371094 194.414062 161.753906 191.949219 167.164062 191.949219 C 172.574219 191.949219 176.964844 194.414062 176.964844 197.457031 "/>
<path style=" stroke:none;fill-rule:nonzero;fill:rgb(27.059937%,49.798584%,57.649231%);fill-opacity:1;" d="M 191.363281 143.902344 C 191.871094 150.21875 192.144531 155.660156 192.140625 160.335938 C 192.144531 165.78125 191.765625 170.183594 191.023438 173.691406 C 190.460938 176.324219 189.707031 178.457031 188.769531 180.253906 C 188.0625 181.605469 187.25 182.773438 186.285156 183.863281 C 184.835938 185.488281 183.023438 186.945312 180.640625 188.355469 C 178.257812 189.765625 175.324219 191.097656 171.78125 192.429688 L 175.554688 202.484375 C 180.195312 200.742188 184.246094 198.875 187.796875 196.546875 C 190.453125 194.804688 192.820312 192.785156 194.8125 190.414062 C 196.3125 188.636719 197.589844 186.667969 198.640625 184.527344 C 200.214844 181.3125 201.273438 177.730469 201.9375 173.746094 C 202.601562 169.753906 202.878906 165.339844 202.882812 160.335938 C 202.878906 155.246094 202.589844 149.539062 202.066406 143.042969 L 191.363281 143.902344 "/>
<path style=" stroke:none;fill-rule:nonzero;fill:rgb(29.40979%,18.429565%,20.779419%);fill-opacity:1;" d="M 202.816406 112.726562 L 190.214844 109.652344 C 190.214844 109.652344 184.832031 88.023438 186.980469 83.992188 C 189.128906 79.964844 202.816406 83.992188 202.816406 83.992188 L 202.816406 112.726562 "/>
<path style=" stroke:none;fill-rule:nonzero;fill:rgb(16.079712%,14.118958%,17.248535%);fill-opacity:1;" d="M 239.335938 221.621094 C 239.277344 224.167969 236.476562 238.71875 225.277344 238.71875 C 203.28125 238.71875 191.816406 233.777344 190.910156 225.941406 C 189.714844 215.59375 190.910156 205.652344 190.910156 205.652344 L 239.335938 205.652344 C 239.335938 205.652344 239.546875 212.375 239.335938 221.621094 "/>
<path style=" stroke:none;fill-rule:nonzero;fill:rgb(13.328552%,11.369324%,13.729858%);fill-opacity:1;" d="M 135.203125 306.371094 L 143.074219 306.371094 C 143.074219 306.371094 157.1875 304.660156 159.570312 304.140625 C 164.191406 303.136719 162.097656 299.28125 162.097656 296.945312 C 162.097656 294.613281 162.097656 293.839844 162.097656 293.839844 L 154.863281 295.488281 C 154.863281 295.488281 139.09375 301.902344 135.984375 303.261719 C 132.875 304.625 135.203125 306.371094 135.203125 306.371094 "/>
<path style=" stroke:none;fill-rule:nonzero;fill:rgb(16.079712%,14.118958%,17.248535%);fill-opacity:1;" d="M 226.59375 238.25 C 226.59375 238.25 224.855469 238.257812 221.808594 238.273438 C 218.734375 238.308594 214.324219 238.382812 209.070312 238.582031 C 206.445312 238.683594 203.605469 238.816406 200.640625 239.007812 C 197.679688 239.203125 194.566406 239.449219 191.488281 239.8125 C 189.953125 239.992188 188.417969 240.207031 187.003906 240.460938 C 186.296875 240.589844 185.621094 240.726562 185.042969 240.863281 C 184.46875 240.996094 183.960938 241.164062 183.871094 241.164062 L 183.886719 241.144531 C 183.917969 241.125 183.882812 241.128906 183.960938 241.082031 L 184.117188 240.957031 C 184.226562 240.882812 184.335938 240.792969 184.433594 240.699219 C 184.546875 240.601562 184.773438 240.398438 184.917969 240.226562 L 184.976562 240.160156 C 184.945312 240.195312 185.527344 239.523438 185.265625 239.824219 L 185.210938 239.886719 L 185.097656 240.011719 L 185.046875 240.066406 L 185.121094 239.976562 L 185.261719 239.785156 L 185.390625 239.582031 L 185.375 239.59375 C 185.265625 239.675781 184.886719 240.300781 184.566406 240.914062 C 183.890625 242.191406 183.183594 243.722656 182.503906 245.273438 C 181.140625 248.386719 179.832031 251.660156 178.574219 254.902344 C 177.316406 258.144531 176.105469 261.371094 174.949219 264.507812 C 172.640625 270.78125 170.550781 276.6875 168.78125 281.753906 C 167.03125 286.835938 165.574219 291.070312 164.554688 294.035156 C 163.550781 297 162.984375 298.691406 162.984375 298.691406 L 152.578125 295.796875 C 152.578125 295.796875 152.984375 294.035156 153.6875 290.945312 C 154.410156 287.871094 155.441406 283.476562 156.679688 278.203125 C 157.941406 272.933594 159.441406 266.789062 161.136719 260.199219 C 161.984375 256.90625 162.882812 253.5 163.839844 250.027344 C 164.800781 246.554688 165.808594 243.03125 166.96875 239.417969 C 167.558594 237.605469 168.167969 235.796875 168.960938 233.8125 C 169.382812 232.796875 169.78125 231.808594 170.601562 230.371094 L 170.765625 230.097656 L 171.078125 229.621094 L 171.40625 229.15625 L 171.636719 228.855469 L 171.730469 228.722656 L 171.78125 228.65625 C 171.53125 228.9375 172.140625 228.242188 172.128906 228.257812 L 172.246094 228.132812 C 172.546875 227.8125 172.929688 227.445312 173.214844 227.207031 C 173.488281 226.976562 173.773438 226.753906 174.058594 226.542969 L 174.777344 226.0625 C 175.035156 225.890625 175.207031 225.800781 175.425781 225.671875 C 175.632812 225.550781 175.851562 225.429688 176.027344 225.339844 C 177.523438 224.570312 178.683594 224.148438 179.785156 223.761719 C 180.878906 223.386719 181.890625 223.09375 182.871094 222.820312 C 184.832031 222.285156 186.660156 221.875 188.449219 221.503906 C 192.011719 220.769531 195.359375 220.214844 198.53125 219.730469 C 201.695312 219.253906 204.671875 218.851562 207.410156 218.511719 C 212.894531 217.828125 217.445312 217.359375 220.640625 217.046875 C 223.871094 216.75 225.71875 216.582031 225.71875 216.582031 L 226.59375 238.25 "/>
<path style=" stroke:none;fill-rule:nonzero;fill:rgb(39.608765%,74.508667%,85.099792%);fill-opacity:1;" d="M 233.570312 140.277344 C 228.21875 133.953125 215.851562 133.519531 211.800781 133.554688 C 207.933594 133.503906 198.5 132.644531 193.082031 139.050781 C 187.3125 145.875 190.292969 215.589844 190.292969 215.589844 L 239.75 215.589844 C 239.75 215.589844 239.335938 147.101562 233.570312 140.277344 "/>
<g clip-path="url(#clip1)" clip-rule="nonzero">
<g clip-path="url(#clip2)" clip-rule="nonzero">
<path style=" stroke:none;fill-rule:nonzero;fill:rgb(32.939148%,61.178589%,70.199585%);fill-opacity:1;" d="M 228.558594 207.324219 L 239.546875 207.324219 L 239.546875 149.707031 L 228.558594 149.707031 Z M 228.558594 207.324219 "/>
</g>
</g>
<path style=" stroke:none;fill-rule:nonzero;fill:rgb(96.859741%,59.609985%,41.569519%);fill-opacity:1;" d="M 199.121094 135.921875 L 221.871094 133.550781 C 221.871094 133.550781 220.125 129.84375 222.261719 125.859375 C 224.875 120.964844 192.082031 123.023438 197.765625 126.09375 C 203.441406 129.160156 199.121094 135.921875 199.121094 135.921875 "/>
<path style=" stroke:none;fill-rule:nonzero;fill:rgb(39.608765%,74.508667%,85.099792%);fill-opacity:1;" d="M 197.765625 135.921875 C 197.765625 135.921875 201.207031 139.050781 210.808594 139.050781 C 219.730469 139.050781 223.125 135.328125 223.125 135.328125 L 221.777344 129.199219 C 221.777344 129.199219 218.417969 131.054688 210.808594 131.054688 C 203.199219 131.054688 198.820312 129.621094 198.820312 129.621094 L 197.765625 135.921875 "/>
<path style=" stroke:none;fill-rule:nonzero;fill:rgb(97.648621%,66.668701%,47.059631%);fill-opacity:1;" d="M 230.371094 100.402344 C 230.371094 100.402344 231.363281 93.378906 235.808594 94.933594 C 240.253906 96.484375 234.828125 108.46875 232.613281 109.425781 C 230.726562 110.246094 229.625 108.597656 229.625 108.597656 "/>
<path style=" stroke:none;fill-rule:nonzero;fill:rgb(97.648621%,66.668701%,47.059631%);fill-opacity:1;" d="M 230.105469 111.953125 C 229.425781 120.71875 218.585938 129.199219 212.214844 129.199219 C 192.011719 129.199219 191.90625 123.652344 190.511719 111.953125 C 189.785156 105.871094 189.484375 95.757812 189.515625 90.019531 C 189.601562 74.339844 196.472656 72.058594 209.652344 72.058594 C 223.824219 72.058594 231.132812 73.949219 231.421875 90.019531 C 231.539062 96.578125 230.574219 105.824219 230.105469 111.953125 "/>
<path style=" stroke:none;fill-rule:nonzero;fill:rgb(29.40979%,18.429565%,20.779419%);fill-opacity:1;" d="M 231.535156 99.289062 C 231.683594 96.832031 233.308594 94.707031 235.289062 94.707031 C 235.144531 87.023438 237.507812 77.28125 234.628906 76.742188 C 228.453125 75.589844 215.433594 83.726562 215.433594 83.726562 C 215.433594 83.726562 217.316406 88.289062 220.503906 90.976562 C 221.453125 91.777344 225.753906 90.976562 226.597656 94.707031 C 227.628906 99.25 228.859375 103.792969 229.003906 104.839844 C 229.136719 105.789062 230.441406 105.167969 230.640625 104.582031 C 231.296875 102.683594 231.535156 99.289062 231.535156 99.289062 "/>
<g clip-path="url(#clip3)" clip-rule="nonzero">
<path style=" stroke:none;fill-rule:nonzero;fill:rgb(29.40979%,18.429565%,20.779419%);fill-opacity:1;" d="M 235.785156 76.015625 C 235.785156 82.265625 230.171875 87.332031 223.257812 87.332031 L 189.96875 87.332031 C 183.050781 87.332031 178.230469 83.007812 177.441406 76.015625 C 176.65625 69.042969 183.242188 59.820312 188.796875 59.820312 C 188.796875 59.820312 186.789062 64.671875 191.316406 64.671875 C 195.84375 64.671875 223.257812 64.695312 223.257812 64.695312 C 230.171875 64.695312 235.785156 69.761719 235.785156 76.015625 "/>
</g>
<path style=" stroke:none;fill-rule:nonzero;fill:rgb(97.648621%,66.668701%,47.059631%);fill-opacity:1;" d="M 232.917969 198.132812 C 232.917969 201.175781 228.535156 203.640625 223.125 203.640625 C 217.714844 203.640625 213.328125 201.175781 213.328125 198.132812 C 213.328125 195.09375 217.714844 192.628906 223.125 192.628906 C 228.535156 192.628906 232.917969 195.09375 232.917969 198.132812 "/>
<path style=" stroke:none;fill-rule:nonzero;fill:rgb(39.608765%,74.508667%,85.099792%);fill-opacity:1;" d="M 227.667969 149.152344 C 231.261719 150.5625 234.214844 152.132812 236.601562 153.785156 C 240.183594 156.265625 242.492188 158.890625 243.9375 161.503906 C 245.378906 164.125 245.996094 166.765625 246.003906 169.503906 C 246.003906 171.816406 245.542969 174.199219 244.644531 176.554688 C 243.308594 180.089844 240.988281 183.554688 238.023438 186.460938 C 235.066406 189.371094 231.480469 191.707031 227.738281 193.105469 L 231.511719 203.164062 C 238.53125 200.515625 244.703125 195.820312 249.246094 189.972656 C 251.515625 187.039062 253.375 183.8125 254.683594 180.367188 C 255.988281 176.925781 256.742188 173.257812 256.742188 169.503906 C 256.746094 166.550781 256.273438 163.546875 255.257812 160.617188 C 253.742188 156.222656 250.996094 152.039062 247.050781 148.40625 C 243.097656 144.765625 237.972656 141.652344 231.582031 139.152344 L 227.667969 149.152344 "/>
<path style=" stroke:none;fill-rule:nonzero;fill:rgb(75.689697%,19.999695%,19.219971%);fill-opacity:1;" d="M 197.679688 106.015625 L 197.679688 104.855469 C 194.675781 104.855469 190.96875 104.855469 189.757812 104.855469 C 188.960938 104.847656 188.410156 104.585938 188.027344 104.203125 C 187.644531 103.820312 187.421875 103.296875 187.421875 102.683594 C 187.421875 101.539062 187.421875 99.453125 187.421875 98.078125 C 187.425781 97.980469 187.4375 97.988281 187.457031 97.960938 C 187.480469 97.945312 187.550781 97.890625 187.734375 97.890625 C 188.285156 97.890625 201.914062 97.890625 201.914062 97.890625 L 201.914062 96.726562 L 200.753906 96.726562 C 200.753906 96.734375 200.753906 99.839844 200.753906 101.148438 C 200.753906 101.996094 200.648438 102.648438 200.480469 103.128906 C 200.230469 103.851562 199.894531 104.203125 199.464844 104.464844 C 199.027344 104.71875 198.421875 104.855469 197.679688 104.855469 L 197.679688 107.179688 C 198.351562 107.179688 199.023438 107.101562 199.675781 106.890625 C 200.648438 106.589844 201.578125 105.949219 202.179688 104.957031 C 202.785156 103.96875 203.078125 102.707031 203.078125 101.148438 C 203.078125 99.839844 203.078125 96.734375 203.078125 96.726562 L 203.078125 95.566406 L 201.914062 95.566406 C 201.914062 95.566406 188.285156 95.566406 187.734375 95.566406 C 187.058594 95.566406 186.390625 95.792969 185.890625 96.246094 C 185.390625 96.695312 185.09375 97.382812 185.097656 98.078125 C 185.097656 99.453125 185.097656 101.539062 185.097656 102.683594 C 185.09375 103.875 185.550781 105.015625 186.382812 105.847656 C 187.210938 106.683594 188.410156 107.179688 189.757812 107.179688 C 190.96875 107.179688 194.675781 107.179688 197.679688 107.179688 L 197.679688 106.015625 "/>
<path style=" stroke:none;fill-rule:nonzero;fill:rgb(75.689697%,19.999695%,19.219971%);fill-opacity:1;" d="M 211.707031 106.015625 L 211.707031 107.179688 C 214.707031 107.179688 218.414062 107.179688 219.625 107.179688 C 220.972656 107.179688 222.171875 106.683594 223.003906 105.847656 C 223.835938 105.015625 224.285156 103.875 224.285156 102.683594 C 224.285156 101.539062 224.285156 99.453125 224.285156 98.078125 C 224.292969 97.382812 223.996094 96.699219 223.492188 96.25 C 222.992188 95.792969 222.328125 95.566406 221.652344 95.566406 C 221.375 95.566406 217.828125 95.566406 214.351562 95.566406 C 212.613281 95.566406 210.890625 95.566406 209.605469 95.566406 C 208.320312 95.566406 207.46875 95.566406 207.464844 95.566406 L 206.304688 95.566406 L 206.304688 96.726562 C 206.304688 96.734375 206.304688 99.839844 206.304688 101.148438 C 206.304688 102.191406 206.433594 103.09375 206.703125 103.875 C 207.09375 105.050781 207.839844 105.953125 208.761719 106.476562 C 209.675781 107.007812 210.699219 107.179688 211.707031 107.179688 L 211.707031 104.855469 C 211.214844 104.855469 210.773438 104.792969 210.410156 104.679688 C 209.867188 104.496094 209.496094 104.238281 209.183594 103.738281 C 208.871094 103.238281 208.628906 102.425781 208.628906 101.148438 C 208.628906 99.839844 208.628906 96.734375 208.628906 96.726562 L 207.464844 96.726562 L 207.464844 97.890625 C 207.46875 97.890625 208.320312 97.890625 209.605469 97.890625 C 213.46875 97.890625 221.234375 97.890625 221.652344 97.890625 C 221.832031 97.890625 221.90625 97.945312 221.925781 97.960938 C 221.945312 97.988281 221.957031 97.980469 221.960938 98.078125 C 221.960938 99.453125 221.960938 101.539062 221.960938 102.683594 C 221.960938 103.296875 221.742188 103.824219 221.359375 104.203125 C 220.972656 104.585938 220.425781 104.847656 219.625 104.855469 C 218.414062 104.855469 214.707031 104.855469 211.707031 104.855469 L 211.707031 106.015625 "/>
<path style=" stroke:none;fill-rule:nonzero;fill:rgb(75.689697%,19.999695%,19.219971%);fill-opacity:1;" d="M 201.914062 99.445312 L 206.953125 99.445312 L 206.953125 97.121094 L 201.914062 97.121094 Z M 201.914062 99.445312 "/>
<path style=" stroke:none;fill-rule:nonzero;fill:rgb(29.40979%,18.429565%,20.779419%);fill-opacity:1;" d="M 196.773438 101.371094 C 196.773438 102.292969 196.023438 103.039062 195.109375 103.039062 C 194.1875 103.039062 193.441406 102.292969 193.441406 101.371094 C 193.441406 100.449219 194.1875 99.703125 195.109375 99.703125 C 196.023438 99.703125 196.773438 100.449219 196.773438 101.371094 "/>
<path style=" stroke:none;fill-rule:nonzero;fill:rgb(100%,100%,100%);fill-opacity:1;" d="M 196.3125 101.457031 C 196.3125 102.261719 194.277344 100 195.007812 100 C 195.726562 100 196.3125 100.652344 196.3125 101.457031 "/>
<path style=" stroke:none;fill-rule:nonzero;fill:rgb(29.40979%,18.429565%,20.779419%);fill-opacity:1;" d="M 191.953125 93.667969 C 192.503906 92.996094 193.550781 92.632812 194.597656 92.636719 C 195.542969 92.628906 196.449219 92.941406 196.863281 93.371094 C 197.074219 93.578125 197.414062 93.578125 197.625 93.367188 C 197.835938 93.160156 197.835938 92.816406 197.625 92.609375 C 196.882812 91.890625 195.753906 91.566406 194.597656 91.5625 C 193.328125 91.5625 191.984375 91.96875 191.125 92.980469 C 190.9375 93.210938 190.96875 93.546875 191.195312 93.738281 C 191.425781 93.925781 191.765625 93.898438 191.953125 93.667969 "/>
<path style=" stroke:none;fill-rule:nonzero;fill:rgb(29.40979%,18.429565%,20.779419%);fill-opacity:1;" d="M 216.707031 101.371094 C 216.707031 102.292969 215.957031 103.039062 215.039062 103.039062 C 214.117188 103.039062 213.371094 102.292969 213.371094 101.371094 C 213.371094 100.449219 214.117188 99.703125 215.039062 99.703125 C 215.957031 99.703125 216.707031 100.449219 216.707031 101.371094 "/>
<path style=" stroke:none;fill-rule:nonzero;fill:rgb(100%,100%,100%);fill-opacity:1;" d="M 216.242188 101.457031 C 216.242188 102.261719 214.210938 100 214.933594 100 C 215.65625 100 216.242188 100.652344 216.242188 101.457031 "/>
<path style=" stroke:none;fill-rule:nonzero;fill:rgb(29.40979%,18.429565%,20.779419%);fill-opacity:1;" d="M 211.882812 93.667969 C 212.433594 92.996094 213.484375 92.632812 214.53125 92.636719 C 215.476562 92.628906 216.378906 92.941406 216.792969 93.367188 C 217.003906 93.578125 217.34375 93.578125 217.554688 93.367188 C 217.765625 93.160156 217.765625 92.820312 217.554688 92.609375 C 216.816406 91.890625 215.6875 91.566406 214.53125 91.5625 C 213.261719 91.5625 211.914062 91.96875 211.058594 92.980469 C 210.871094 93.210938 210.902344 93.546875 211.128906 93.738281 C 211.359375 93.925781 211.695312 93.898438 211.882812 93.667969 "/>
<path style=" stroke:none;fill-rule:nonzero;fill:rgb(88.62915%,54.508972%,37.649536%);fill-opacity:1;" d="M 200.941406 111.539062 L 204.699219 113.847656 L 204.699219 100 Z M 200.941406 111.539062 "/>
<path style=" stroke:none;fill-rule:nonzero;fill:rgb(100%,100%,100%);fill-opacity:1;" d="M 209.925781 115.617188 C 209.925781 115.617188 209.074219 120.71875 204.4375 120.71875 C 199.796875 120.71875 198.945312 115.617188 198.945312 115.617188 L 209.925781 115.617188 "/>
<path style=" stroke:none;fill-rule:nonzero;fill:rgb(82.749939%,82.348633%,82.348633%);fill-opacity:1;" d="M 203.582031 183.054688 C 203.582031 186.234375 201.011719 188.8125 197.835938 188.8125 L 113.480469 188.8125 C 110.304688 188.8125 107.730469 186.234375 107.730469 183.054688 L 98.144531 126.472656 C 98.144531 123.296875 100.71875 120.71875 103.894531 120.71875 L 188.246094 120.71875 C 191.425781 120.71875 194 123.296875 194 126.472656 L 203.582031 183.054688 "/>
<path style=" stroke:none;fill-rule:nonzero;fill:rgb(100%,100%,100%);fill-opacity:1;" d="M 198.792969 183.054688 C 198.792969 186.234375 196.21875 188.8125 193.042969 188.8125 L 108.6875 188.8125 C 105.511719 188.8125 102.9375 186.234375 102.9375 183.054688 L 93.355469 126.472656 C 93.355469 123.296875 95.925781 120.71875 99.101562 120.71875 L 183.453125 120.71875 C 186.632812 120.71875 189.207031 123.296875 189.207031 126.472656 L 198.792969 183.054688 "/>
<path style=" stroke:none;fill-rule:nonzero;fill:rgb(56.858826%,56.079102%,56.079102%);fill-opacity:1;" d="M 198.792969 183.054688 L 198.410156 183.054688 C 198.410156 184.539062 197.808594 185.878906 196.835938 186.855469 C 195.863281 187.824219 194.527344 188.425781 193.042969 188.425781 L 108.6875 188.425781 C 107.203125 188.425781 105.863281 187.824219 104.894531 186.855469 C 103.921875 185.878906 103.320312 184.539062 103.320312 183.054688 L 103.320312 183.019531 L 93.734375 126.410156 L 93.355469 126.472656 L 93.734375 126.472656 C 93.738281 124.988281 94.335938 123.652344 95.308594 122.675781 C 96.28125 121.707031 97.621094 121.105469 99.101562 121.105469 L 183.453125 121.105469 C 184.9375 121.105469 186.277344 121.707031 187.25 122.675781 C 188.222656 123.652344 188.820312 124.988281 188.820312 126.472656 L 188.820312 126.507812 L 198.414062 183.121094 L 198.792969 183.054688 L 198.410156 183.054688 L 198.792969 183.054688 L 199.171875 182.988281 L 189.585938 126.410156 L 189.207031 126.472656 L 189.589844 126.472656 C 189.589844 123.082031 186.84375 120.335938 183.453125 120.335938 L 99.101562 120.335938 C 95.714844 120.335938 92.96875 123.082031 92.96875 126.472656 L 92.96875 126.507812 L 102.558594 183.121094 L 102.9375 183.054688 L 102.550781 183.054688 C 102.550781 186.449219 105.300781 189.195312 108.6875 189.195312 L 193.042969 189.195312 C 196.429688 189.195312 199.175781 186.449219 199.175781 183.054688 L 199.175781 183.019531 L 199.171875 182.988281 L 198.792969 183.054688 "/>
<path style=" stroke:none;fill-rule:nonzero;fill:rgb(82.749939%,82.348633%,82.348633%);fill-opacity:1;" d="M 159.550781 204.523438 L 155.65625 174.152344 L 141.28125 174.152344 L 138.425781 204.523438 L 159.550781 204.523438 "/>
<path style=" stroke:none;fill-rule:nonzero;fill:rgb(100%,100%,100%);fill-opacity:1;" d="M 155.65625 204.523438 L 155.65625 174.152344 L 141.28125 174.152344 L 141.28125 204.523438 L 155.65625 204.523438 "/>
<path style=" stroke:none;fill-rule:nonzero;fill:rgb(100%,100%,100%);fill-opacity:1;" d="M 174.507812 207.496094 L 174.507812 204.179688 C 174.507812 201.175781 172.210938 198.746094 169.375 198.746094 L 133.152344 198.746094 C 130.320312 198.746094 128.019531 201.175781 128.019531 204.179688 L 128.019531 207.496094 L 174.507812 207.496094 "/>
<path style=" stroke:none;fill-rule:nonzero;fill:rgb(65.489197%,64.709473%,65.098572%);fill-opacity:1;" d="M 174.507812 207.496094 L 174.894531 207.496094 L 174.894531 204.179688 C 174.894531 202.582031 174.28125 201.125 173.285156 200.074219 C 172.289062 199.019531 170.90625 198.359375 169.375 198.359375 L 133.152344 198.359375 C 131.625 198.359375 130.238281 199.019531 129.246094 200.074219 C 128.246094 201.125 127.632812 202.582031 127.636719 204.179688 L 127.632812 207.882812 L 174.894531 207.882812 L 174.894531 207.496094 L 174.507812 207.496094 L 174.507812 207.113281 L 128.40625 207.113281 L 128.40625 204.179688 C 128.40625 202.777344 128.941406 201.515625 129.804688 200.601562 C 130.664062 199.6875 131.847656 199.128906 133.152344 199.128906 L 169.375 199.128906 C 170.683594 199.128906 171.863281 199.6875 172.726562 200.601562 C 173.589844 201.515625 174.125 202.777344 174.125 204.179688 L 174.125 207.496094 L 174.507812 207.496094 L 174.507812 207.113281 L 174.507812 207.496094 "/>
<path style=" stroke:none;fill-rule:nonzero;fill:rgb(82.749939%,82.348633%,82.348633%);fill-opacity:1;" d="M 128.019531 204.179688 L 174.507812 204.179688 L 174.507812 207.496094 L 128.019531 207.496094 L 128.019531 204.179688 "/>
<path style=" stroke:none;fill-rule:nonzero;fill:rgb(92.158508%,92.158508%,92.158508%);fill-opacity:1;" d="M 222.96875 205.730469 C 222.96875 208.714844 203.8125 208.714844 203.8125 205.730469 C 203.8125 202.753906 208.101562 200.339844 213.390625 200.339844 C 218.679688 200.339844 222.96875 202.753906 222.96875 205.730469 "/>
<path style=" stroke:none;fill-rule:nonzero;fill:rgb(79.219055%,78.819275%,78.819275%);fill-opacity:1;" d="M 216.527344 205.796875 C 213.039062 206.097656 208.125 205.292969 205.8125 202.441406 C 204.5625 203.351562 203.8125 204.492188 203.8125 205.730469 C 203.8125 208.714844 222.96875 208.714844 222.96875 205.730469 C 222.96875 205.046875 222.734375 204.386719 222.316406 203.785156 C 220.75 204.882812 218.789062 205.597656 216.527344 205.796875 "/>
<g clip-path="url(#clip4)" clip-rule="nonzero">
<path style=" stroke:none;fill-rule:nonzero;fill:rgb(82.749939%,82.348633%,82.348633%);fill-opacity:1;" d="M 249.019531 310.121094 L 249.019531 214.921875 L 240.917969 214.921875 L 240.917969 310.121094 C 240.917969 313.320312 242.738281 315.910156 244.96875 315.910156 C 247.207031 315.910156 249.019531 313.320312 249.019531 310.121094 "/>
</g>
<g clip-path="url(#clip5)" clip-rule="nonzero">
<path style=" stroke:none;fill-rule:nonzero;fill:rgb(71.369934%,70.979309%,70.979309%);fill-opacity:1;" d="M 280 310.121094 L 280 214.921875 L 271.910156 214.921875 L 271.910156 310.121094 C 271.910156 313.320312 273.71875 315.910156 275.957031 315.910156 C 278.191406 315.910156 280 313.320312 280 310.121094 "/>
</g>
<path style=" stroke:none;fill-rule:nonzero;fill:rgb(82.749939%,82.348633%,82.348633%);fill-opacity:1;" d="M 275.035156 262.144531 L 244.046875 262.144531 L 244.046875 251.90625 L 275.035156 251.90625 C 275.035156 251.90625 276.707031 252.921875 276.707031 257.027344 C 276.707031 261.128906 275.035156 262.144531 275.035156 262.144531 "/>
<g clip-path="url(#clip6)" clip-rule="nonzero">
<path style=" stroke:none;fill-rule:nonzero;fill:rgb(82.749939%,82.348633%,82.348633%);fill-opacity:1;" d="M 87.089844 310.121094 L 87.089844 214.921875 L 78.992188 214.921875 L 78.992188 310.121094 C 78.992188 313.320312 80.804688 315.910156 83.039062 315.910156 C 85.277344 315.910156 87.089844 313.320312 87.089844 310.121094 "/>
</g>
<g clip-path="url(#clip7)" clip-rule="nonzero">
<path style=" stroke:none;fill-rule:nonzero;fill:rgb(74.119568%,73.728943%,73.728943%);fill-opacity:1;" d="M 112.542969 310.121094 L 112.542969 214.921875 L 104.449219 214.921875 L 104.449219 310.121094 C 104.449219 313.320312 106.257812 315.910156 108.496094 315.910156 C 110.734375 315.910156 112.542969 313.320312 112.542969 310.121094 "/>
</g>
<g clip-path="url(#clip8)" clip-rule="nonzero">
<path style=" stroke:none;fill-rule:nonzero;fill:rgb(65.489197%,64.709473%,65.098572%);fill-opacity:1;" d="M 317.640625 212.453125 C 317.640625 215.070312 316.089844 217.195312 314.175781 217.195312 L 72.773438 217.195312 C 70.859375 217.195312 69.308594 215.070312 69.308594 212.453125 C 69.308594 209.832031 70.859375 207.710938 72.773438 207.710938 L 314.175781 207.710938 C 316.089844 207.710938 317.640625 209.832031 317.640625 212.453125 "/>
</g>
<path style=" stroke:none;fill-rule:nonzero;fill:rgb(82.749939%,82.348633%,82.348633%);fill-opacity:1;" d="M 110.707031 262.144531 L 79.722656 262.144531 L 79.722656 251.90625 L 110.707031 251.90625 C 110.707031 251.90625 112.378906 252.921875 112.378906 257.027344 C 112.378906 261.128906 110.707031 262.144531 110.707031 262.144531 "/>
<g clip-path="url(#clip9)" clip-rule="nonzero">
<path style=" stroke:none;fill-rule:nonzero;fill:rgb(0%,84.709167%,100%);fill-opacity:1;" d="M 158.621094 142.84375 C 158.246094 142.71875 157.855469 142.597656 157.457031 142.484375 C 157.523438 142.222656 157.582031 141.960938 157.636719 141.703125 C 158.519531 137.503906 157.941406 134.117188 155.972656 133.003906 C 154.082031 131.933594 150.992188 133.050781 147.871094 135.710938 C 147.570312 135.96875 147.269531 136.238281 146.972656 136.523438 C 146.769531 136.335938 146.570312 136.15625 146.371094 135.980469 C 143.101562 133.132812 139.824219 131.933594 137.855469 133.050781 C 135.96875 134.121094 135.410156 137.304688 136.203125 141.285156 C 136.28125 141.671875 136.367188 142.0625 136.46875 142.460938 C 136.007812 142.59375 135.558594 142.730469 135.128906 142.875 C 131.296875 144.1875 128.847656 146.242188 128.847656 148.375 C 128.847656 150.574219 131.476562 152.785156 135.46875 154.121094 C 135.785156 154.226562 136.113281 154.328125 136.449219 154.421875 C 136.339844 154.855469 136.246094 155.277344 136.164062 155.691406 C 135.40625 159.605469 136 162.710938 137.878906 163.773438 C 139.824219 164.875 143.089844 163.746094 146.265625 161.019531 C 146.515625 160.804688 146.769531 160.578125 147.019531 160.339844 C 147.347656 160.644531 147.675781 160.9375 148 161.214844 C 151.078125 163.8125 154.117188 164.859375 155.996094 163.792969 C 157.9375 162.691406 158.570312 159.351562 157.75 155.292969 C 157.6875 154.980469 157.617188 154.664062 157.535156 154.34375 C 157.765625 154.277344 157.988281 154.207031 158.207031 154.136719 C 162.359375 152.785156 165.058594 150.605469 165.058594 148.375 C 165.058594 146.234375 162.53125 144.164062 158.621094 142.84375 Z M 157.722656 152.695312 C 157.523438 152.757812 157.320312 152.820312 157.113281 152.882812 C 156.65625 151.457031 156.035156 149.945312 155.277344 148.382812 C 156 146.855469 156.59375 145.359375 157.042969 143.945312 C 157.410156 144.050781 157.769531 144.164062 158.117188 144.28125 C 161.46875 145.410156 163.511719 147.085938 163.511719 148.375 C 163.511719 149.746094 161.304688 151.53125 157.722656 152.695312 Z M 156.234375 155.585938 C 156.597656 157.382812 156.648438 159.003906 156.40625 160.273438 C 156.191406 161.414062 155.757812 162.175781 155.222656 162.480469 C 154.082031 163.128906 151.640625 162.285156 149.007812 160.0625 C 148.707031 159.808594 148.402344 159.535156 148.097656 159.25 C 149.117188 158.152344 150.136719 156.882812 151.132812 155.46875 C 152.882812 155.316406 154.539062 155.066406 156.039062 154.726562 C 156.113281 155.019531 156.175781 155.304688 156.234375 155.585938 Z M 141.195312 162.367188 C 140.078125 162.753906 139.191406 162.765625 138.652344 162.460938 C 137.511719 161.8125 137.035156 159.320312 137.683594 155.972656 C 137.757812 155.589844 137.847656 155.195312 137.949219 154.792969 C 139.433594 155.117188 141.074219 155.347656 142.828125 155.488281 C 143.832031 156.871094 144.878906 158.140625 145.9375 159.253906 C 145.707031 159.472656 145.476562 159.679688 145.246094 159.878906 C 143.84375 161.082031 142.433594 161.9375 141.195312 162.367188 Z M 135.96875 152.6875 C 134.203125 152.09375 132.746094 151.324219 131.746094 150.484375 C 130.847656 149.730469 130.394531 148.980469 130.394531 148.375 C 130.394531 147.082031 132.359375 145.429688 135.640625 144.308594 C 136.039062 144.171875 136.453125 144.042969 136.886719 143.925781 C 137.339844 145.371094 137.933594 146.882812 138.652344 148.410156 C 137.925781 149.960938 137.320312 151.496094 136.863281 152.960938 C 136.554688 152.875 136.257812 152.78125 135.96875 152.6875 Z M 137.722656 140.996094 C 137.039062 137.582031 137.492188 135.007812 138.628906 134.363281 C 139.839844 133.675781 142.519531 134.65625 145.34375 137.117188 C 145.523438 137.273438 145.707031 137.4375 145.886719 137.605469 C 144.835938 138.714844 143.796875 139.976562 142.800781 141.351562 C 141.097656 141.507812 139.46875 141.753906 137.96875 142.089844 C 137.875 141.71875 137.792969 141.351562 137.722656 140.996094 Z M 153.339844 144.777344 C 152.984375 144.171875 152.613281 143.578125 152.238281 143 C 153.394531 143.144531 154.503906 143.335938 155.542969 143.566406 C 155.230469 144.550781 154.839844 145.574219 154.382812 146.628906 C 154.054688 146.015625 153.707031 145.398438 153.339844 144.777344 Z M 146.972656 138.691406 C 147.683594 139.449219 148.398438 140.296875 149.101562 141.214844 C 148.394531 141.183594 147.675781 141.164062 146.953125 141.164062 C 146.238281 141.164062 145.527344 141.183594 144.824219 141.214844 C 145.523438 140.304688 146.246094 139.460938 146.972656 138.691406 Z M 140.5625 144.789062 C 140.203125 145.398438 139.863281 146.011719 139.539062 146.625 C 139.089844 145.578125 138.703125 144.546875 138.386719 143.550781 C 139.421875 143.324219 140.523438 143.140625 141.671875 143 C 141.289062 143.582031 140.917969 144.179688 140.5625 144.789062 Z M 141.703125 153.855469 C 140.519531 153.726562 139.398438 153.550781 138.367188 153.332031 C 138.6875 152.316406 139.078125 151.265625 139.539062 150.195312 C 139.863281 150.808594 140.207031 151.421875 140.566406 152.03125 C 140.933594 152.65625 141.3125 153.261719 141.703125 153.855469 Z M 147.011719 158.164062 C 146.28125 157.386719 145.550781 156.527344 144.835938 155.605469 C 145.527344 155.632812 146.234375 155.644531 146.953125 155.644531 C 147.691406 155.644531 148.421875 155.628906 149.140625 155.597656 C 148.433594 156.539062 147.722656 157.398438 147.011719 158.164062 Z M 154.398438 150.140625 C 154.882812 151.222656 155.289062 152.269531 155.613281 153.265625 C 154.5625 153.5 153.429688 153.6875 152.234375 153.828125 C 152.613281 153.246094 152.984375 152.640625 153.347656 152.023438 C 153.71875 151.394531 154.066406 150.765625 154.398438 150.140625 Z M 152.007812 151.265625 C 151.441406 152.226562 150.859375 153.144531 150.269531 154.011719 C 149.195312 154.089844 148.085938 154.128906 146.953125 154.128906 C 145.828125 154.128906 144.730469 154.09375 143.675781 154.027344 C 143.0625 153.148438 142.46875 152.226562 141.90625 151.273438 C 141.34375 150.320312 140.828125 149.363281 140.359375 148.410156 C 140.828125 147.457031 141.34375 146.496094 141.902344 145.546875 C 142.460938 144.59375 143.046875 143.679688 143.65625 142.804688 C 144.734375 142.726562 145.839844 142.683594 146.953125 142.683594 C 148.074219 142.683594 149.179688 142.726562 150.257812 142.804688 C 150.855469 143.671875 151.441406 144.585938 152.003906 145.539062 C 152.570312 146.5 153.089844 147.453125 153.5625 148.390625 C 153.09375 149.339844 152.574219 150.304688 152.007812 151.265625 Z M 155.199219 134.316406 C 156.410156 135.003906 156.882812 137.769531 156.121094 141.398438 C 156.070312 141.628906 156.015625 141.867188 155.957031 142.105469 C 154.457031 141.765625 152.824219 141.511719 151.117188 141.355469 C 150.121094 139.964844 149.089844 138.699219 148.054688 137.605469 C 148.332031 137.34375 148.613281 137.09375 148.886719 136.855469 C 151.5625 134.574219 154.0625 133.671875 155.199219 134.316406 Z M 146.953125 145.203125 C 148.738281 145.203125 150.1875 146.621094 150.1875 148.375 C 150.1875 150.125 148.738281 151.546875 146.953125 151.546875 C 145.167969 151.546875 143.71875 150.125 143.71875 148.375 C 143.71875 146.621094 145.167969 145.203125 146.953125 145.203125 Z M 146.953125 145.203125 "/>
</g>
</g>
</svg>
